# xmcd
#
# Track frame offsets:
#	150
#	9763
#	23791
#	40380
#	57026
#	77576
#	100509
#	126819
#	147586
#	165462
#	181735
#	191766
#
# Disc length: 2717 seconds
#
# Revision: 0
# Processed by: cddbd v1.5.2PL0 Copyright (c) Steve Scherf et al.
# Submitted via: EasyCDDAExtractor 10.5.1.1
#
DISCID=8c0a9b0c
DTITLE=Baby Dee - A Book of Songs for Anne Marie
DYEAR=2010
DGENRE=Ballad
TTITLE0=Overture
TTITLE1=Love's Small Song
TTITLE2=A Book of Songs for Anne Marie
TTITLE3=Lilacs
TTITLE4=Unheard of Hope
TTITLE5=Black But Comely
TTITLE6=And Anne Marie Does Love to Sing
TTITLE7=Endless Night
TTITLE8=See Me As A Seal
TTITLE9=As Morning Holds A Star
TTITLE10=An Early Spring
TTITLE11=Morning Fire
EXTD=
EXTT0=
EXTT1=
EXTT2=
EXTT3=
EXTT4=
EXTT5=
EXTT6=
EXTT7=
EXTT8=
EXTT9=
EXTT10=
EXTT11=
PLAYORDER=
